<?xml version="1.0" encoding="UTF-8"?>
<svg width="30px" height="29px" viewBox="0 0 30 29" version="1.1" xmlns="http://www.w3.org/2000/svg" xmlns:xlink="http://www.w3.org/1999/xlink">
    <!-- Generator: Sketch 43.2 (39069) - http://www.bohemiancoding.com/sketch -->
    <title>instagram</title>
    <desc>Created with Sketch.</desc>
    <defs></defs>
    <g id="Page-1" stroke="none" stroke-width="1" fill="none" fill-rule="evenodd">
        <g id="menu" transform="translate(-1190.000000, -549.000000)" fill-rule="nonzero" fill="#FFFFFF">
            <g id="contacto" transform="translate(953.000000, 446.000000)">
                <g id="Group-2" transform="translate(114.000000, 103.000000)">
                    <g id="instagram" transform="translate(123.783582, 0.000000)">
                        <path d="M20.2937303,0 L8.61082198,0 C3.86279472,0 0,3.86876812 0,8.62413768 L0,20.3251123 C0,25.0804819 3.86279472,28.94925 8.61082198,28.94925 L20.2937303,28.94925 C25.0417575,28.94925 28.9045522,25.0804819 28.9045522,20.3251123 L28.9045522,8.62413768 C28.9044998,3.86876812 25.0417051,0 20.2937303,0 Z M25.9967554,20.3251123 C25.9967554,23.4796504 23.4433977,26.0369565 20.2937303,26.0369565 L8.61082198,26.0369565 C5.46115455,26.0369565 2.90779689,23.4796504 2.90779689,20.3251123 L2.90779689,8.62413768 C2.90779689,5.4695471 5.46115455,2.91229348 8.61082198,2.91229348 L20.2937303,2.91229348 C23.4433977,2.91229348 25.9967554,5.4695471 25.9967554,8.62413768 L25.9967554,20.3251123 L25.9967554,20.3251123 Z" id="Shape"></path>
                        <path d="M14.4522761,6.98731884 C10.3301433,6.98731884 6.97653039,10.3461178 6.97653039,14.4745725 C6.97653039,18.6030272 10.3301433,21.9618786 14.4522761,21.9618786 C18.5744089,21.9618786 21.9280218,18.6030797 21.9280218,14.4745725 C21.9280218,10.3460652 18.5744089,6.98731884 14.4522761,6.98731884 Z M14.4522761,19.0496377 C11.9294473,19.0496377 9.88432728,17.0013551 9.88432728,14.474625 C9.88432728,11.9478949 11.9294998,9.89961232 14.4522761,9.89961232 C16.9751049,9.89961232 19.020225,11.9478949 19.020225,14.474625 C19.020225,17.0013025 16.9750525,19.0496377 14.4522761,19.0496377 Z" id="Shape"></path>
                        <ellipse id="Oval" cx="21.9424995" cy="7.04353261" rx="1.7913422" ry="1.79411232"></ellipse>
                    </g>
                </g>
            </g>
        </g>
    </g>
</svg>