<?xml version="1.0" encoding="UTF-8"?>
<svg width="29px" height="29px" viewBox="0 0 29 29" version="1.1" xmlns="http://www.w3.org/2000/svg" xmlns:xlink="http://www.w3.org/1999/xlink">
    <!-- Generator: Sketch 43.2 (39069) - http://www.bohemiancoding.com/sketch -->
    <title>linkedin</title>
    <desc>Created with Sketch.</desc>
    <defs></defs>
    <g id="Page-1" stroke="none" stroke-width="1" fill="none" fill-rule="evenodd">
        <g id="menu" transform="translate(-1067.000000, -549.000000)" fill-rule="nonzero" fill="#FFFFFF">
            <g id="contacto" transform="translate(953.000000, 446.000000)">
                <g id="Group-2" transform="translate(114.000000, 103.000000)">
                    <g id="linkedin">
                        <path d="M26.3359889,0 L2.61923498,0 C1.17268657,0 0,1.1745 0,2.62328534 L0,26.3766387 C0,27.8255 1.17268657,29 2.61923498,29 L26.3359131,29 C27.7825373,29 28.9552239,27.8255 28.9552239,26.3766387 L28.9552239,2.62328534 C28.9552239,1.1745 27.7825373,0 26.3359889,0 Z M8.95997421,25.0405131 C8.95997421,25.4621518 8.61872705,25.8039267 8.19773931,25.8039267 L4.95308666,25.8039267 C4.53209893,25.8039267 4.19085176,25.4621518 4.19085176,25.0405131 L4.19085176,11.4180288 C4.19085176,10.9963901 4.53209893,10.6546152 4.95308666,10.6546152 L8.19773931,10.6546152 C8.61872705,10.6546152 8.95997421,10.9963901 8.95997421,11.4180288 L8.95997421,25.0405131 Z M6.57541299,9.37049215 C4.8730429,9.37049215 3.49297023,7.98828534 3.49297023,6.28328272 C3.49297023,4.5782801 4.8730429,3.1960733 6.57541299,3.1960733 C8.27778307,3.1960733 9.65785575,4.5782801 9.65785575,6.28328272 C9.65785575,7.98828534 8.27785887,9.37049215 6.57541299,9.37049215 Z M25.9164414,25.1020052 C25.9164414,25.4896335 25.6026334,25.8039267 25.2156037,25.8039267 L21.7338517,25.8039267 C21.3468219,25.8039267 21.033014,25.4896335 21.033014,25.1020052 L21.033014,18.712288 C21.033014,17.7590838 21.3121818,14.535301 18.5458209,14.535301 C16.4000266,14.535301 15.9647886,16.7418822 15.8773924,17.7321335 L15.8773924,25.1020052 C15.8773924,25.4896335 15.5636602,25.8039267 15.1765547,25.8039267 L11.8091076,25.8039267 C11.4220778,25.8039267 11.1082699,25.4896335 11.1082699,25.1020052 L11.1082699,11.3565366 C11.1082699,10.9689084 11.4220778,10.6546152 11.8091076,10.6546152 L15.1765547,10.6546152 C15.5635844,10.6546152 15.8773924,10.9689084 15.8773924,11.3565366 L15.8773924,12.5450052 C16.6730546,11.3490969 17.8555193,10.4260314 20.3731836,10.4260314 C25.9483527,10.4260314 25.9164414,15.6426911 25.9164414,18.5089843 L25.9164414,25.1020052 L25.9164414,25.1020052 Z" id="Shape"></path>
                    </g>
                </g>
            </g>
        </g>
    </g>
</svg>