<?xml version="1.0" encoding="UTF-8"?>
<svg width="30px" height="25px" viewBox="0 0 30 25" version="1.1" xmlns="http://www.w3.org/2000/svg" xmlns:xlink="http://www.w3.org/1999/xlink">
    <!-- Generator: Sketch 43.2 (39069) - http://www.bohemiancoding.com/sketch -->
    <title>twitter</title>
    <desc>Created with Sketch.</desc>
    <defs></defs>
    <g id="Page-1" stroke="none" stroke-width="1" fill="none" fill-rule="evenodd">
        <g id="menu" transform="translate(-1149.000000, -551.000000)" fill-rule="nonzero" fill="#FFFFFF">
            <g id="contacto" transform="translate(953.000000, 446.000000)">
                <g id="Group-2" transform="translate(114.000000, 103.000000)">
                    <g id="twitter" transform="translate(82.522388, 2.175000)">
                        <path d="M28.4949637,3.16218559 C27.8516239,3.44790448 27.1837874,3.67331201 26.4985137,3.83649914 C27.2536067,3.11785356 27.8213383,2.21898095 28.1416316,1.21567705 L28.1416316,1.21567705 C28.2330532,0.929251109 27.9224315,0.681571508 27.664192,0.834930644 L27.664192,0.834930644 C26.7108659,1.40127766 25.683979,1.82614399 24.6119814,2.09786329 C24.5497865,2.1136305 24.4856149,2.12162017 24.4212315,2.12162017 C24.2259634,2.12162017 24.0361312,2.04900613 23.8868211,1.91721202 C22.7462749,0.91044358 21.2793642,0.355975 19.7564004,0.355975 C19.0973883,0.355975 18.4320227,0.458850769 17.7787289,0.661774109 C15.7546053,1.29055364 14.1928138,2.96279751 13.7028082,5.02596929 C13.5189767,5.79983548 13.4692066,6.57440871 13.5547687,7.32812397 C13.5645816,7.41473759 13.5237066,7.47519036 13.4985039,7.50354307 C13.4542403,7.55324868 13.3914806,7.58174279 13.3263206,7.58174279 C13.3190493,7.58174279 13.3115661,7.58138927 13.3041535,7.58068222 C8.87341823,7.16840139 4.87797678,5.03049441 2.05379071,1.56085884 L2.05379071,1.56085884 C1.90977522,1.38388423 1.63360434,1.40559067 1.51881553,1.6027869 L1.51881553,1.6027869 C0.965767815,2.55306205 0.673501089,3.63993925 0.673501089,4.7459068 C0.673501089,6.44084697 1.3534095,8.03814354 2.5344071,9.20258413 C2.03776545,9.08464819 1.55707847,8.89890617 1.11055986,8.65051952 L1.11055986,8.65051952 C0.894536625,8.53032102 0.628743335,8.68481144 0.625707714,8.93227893 L0.625707714,8.93227893 C0.594786742,11.4502253 2.06670974,13.6907252 4.27169982,14.6996148 C4.22729504,14.7006753 4.18289027,14.7011703 4.13841489,14.7011703 C3.78889495,14.7011703 3.43499807,14.6673733 3.08667826,14.6006985 L3.08667826,14.6006985 C2.84340504,14.5541746 2.63903012,14.7853092 2.71456765,15.0215346 L2.71456765,15.0215346 C3.43026815,17.2594184 5.35414564,18.908966 7.65641676,19.2834904 C5.7456701,20.5681294 3.52056021,21.2457661 1.20466409,21.2457661 L0.482680568,21.2453419 C0.260233116,21.2453419 0.0720952357,21.39057 0.0154067863,21.6063616 C-0.0404345132,21.8189008 0.0624236073,22.0431064 0.252114596,22.1536183 C2.86175995,23.6746949 5.83843301,24.4786107 8.86162873,24.4786107 C11.5079133,24.4786107 13.9832854,23.9526362 16.2190553,22.9153939 C18.2686639,21.9644824 20.0798705,20.6051789 21.6023401,18.8752397 C23.0206103,17.2637314 24.1296707,15.4034123 24.8986005,13.3460383 C25.6315969,11.3848938 26.0190268,9.29230877 26.0190268,7.29446839 L26.0190268,7.19929947 C26.0189562,6.8785109 26.1638189,6.57667127 26.4165519,6.37120255 C27.3755963,5.59132644 28.2107449,4.67329277 28.8987012,3.64262604 L28.8987012,3.64262604 C29.0803443,3.37048251 28.7938664,3.02940161 28.4949637,3.16218559 L28.4949637,3.16218559 Z" id="Shape"></path>
                    </g>
                </g>
            </g>
        </g>
    </g>
</svg>